# xmcd
#
# Track frame offsets: 
#        150
#        20218
#        47107
#        64757
#        85769
#        99474
#        116033
#        134691
#        157637
#        176630
#
# Disc length: 2521 seconds
#
# Revision: 0
# Processed by: cddbd v1.5.2PL0 Copyright (c) Steve Scherf et al.
# Submitted via: ExactAudioCopyFreeDBPlugin 1.0
#
DISCID=8309d70a
DTITLE=Sade - Soldier of Love
DYEAR=2010
DGENRE=Soul and R&B
TTITLE0=The Moon and The Sky
TTITLE1=Soldier of Love
TTITLE2=Morning Bird
TTITLE3=Babyfather
TTITLE4=Long Hard Road
TTITLE5=Be That Easy
TTITLE6=Bring Me Home
TTITLE7=In Another Time
TTITLE8=Skin
TTITLE9=The Safest Place
EXTD=
EXTT0=
EXTT1=
EXTT2=
EXTT3=
EXTT4=
EXTT5=
EXTT6=
EXTT7=
EXTT8=
EXTT9=
PLAYORDER=
